<?xml version="1.0" encoding="utf-8"?>
<!-- Uploaded to: SVG Repo, www.svgrepo.com, Generator: SVG Repo Mixer Tools -->
<svg width="800px" height="800px" viewBox="0 0 1024 1024" class="icon"  version="1.1" xmlns="http://www.w3.org/2000/svg"><path d="M802.227463 198.333755c-0.554946 0.186347-57.300718 19.631977-147.033005 19.631977-45.72979 0-89.304302-9.292783-131.403395-18.276353-42.55677-9.047051-86.594077-18.465772-133.215671-18.465772-92.965716 0-124.477834 20.003648-127.801367 22.281792l-6.768906 4.676085v666.29747h31.512119V573.21196c12.553858-4.924888 43.265298-13.66375 103.059177-13.663749 43.297039 0 83.795799 8.678452 126.660758 17.784888 43.70045 9.356264 88.903963 18.957237 137.958309 18.957236 95.518262 0 155.002928-20.495113 157.495065-21.418657l10.524517-3.693154v-380.168621l-20.987601 7.323852z" fill="#98C4D8" /><path d="M770.715344 166.821636c-0.554946 0.186347-57.300718 19.631977-147.033004 19.631977-45.72979 0-89.304302-9.292783-131.403395-18.276353-42.55677-9.047051-86.594077-18.465772-133.215672-18.465772-92.965716 0-124.477834 20.003648-127.801366 22.281793l-6.768906 4.676084V842.96786H256.005119V541.699842c12.553858-4.924888 43.265298-13.66375 103.059178-13.66375 43.297039 0 83.795799 8.678452 126.660758 17.784888 43.70045 9.356264 88.903963 18.957237 137.958308 18.957237 95.518262 0 155.002928-20.495113 157.495065-21.418657l10.524517-3.693155V159.498808l-20.987601 7.322828z" fill="red" /><path d="M326.749492 257.560388a28.350361 60.243365 55.515 1 0 99.314132-68.218437 28.350361 60.243365 55.515 1 0-99.314132 68.218437Z" fill="red" /><path d="M265.872647 356.701875a18.899899 33.074568 55.515 1 0 54.525042-37.453009 18.899899 33.074568 55.515 1 0-54.525042 37.453009Z" fill="red" /></svg>